<mxfile host="app.diagrams.net" modified="2024-02-26T02:28:46.753Z" agent="Mozilla/5.0 (Windows NT 10.0; Win64; x64) AppleWebKit/537.36 (KHTML, like Gecko) Chrome/122.0.0.0 Safari/537.36" etag="fPVY7y1Xab2Wwxvc3TYN" version="23.1.5" type="device">
  <diagram name="Page-1" id="G7aFnY46zYgQqL4Gn7rq">
    <mxGraphModel dx="1050" dy="557" grid="1" gridSize="10" guides="1" tooltips="1" connect="1" arrows="1" fold="1" page="1" pageScale="1" pageWidth="850" pageHeight="1100" math="0" shadow="0">
      <root>
        <mxCell id="0" />
        <mxCell id="1" parent="0" />
        <mxCell id="N7a6y6u_fCZmtixAhhg3-1" value="" style="shape=flexArrow;endArrow=classic;html=1;rounded=0;" edge="1" parent="1">
          <mxGeometry width="50" height="50" relative="1" as="geometry">
            <mxPoint x="120" y="214.5" as="sourcePoint" />
            <mxPoint x="180" y="214.5" as="targetPoint" />
          </mxGeometry>
        </mxCell>
        <mxCell id="N7a6y6u_fCZmtixAhhg3-3" value="Input Prompt" style="text;html=1;align=center;verticalAlign=middle;whiteSpace=wrap;rounded=0;" vertex="1" parent="1">
          <mxGeometry x="60" y="200" width="60" height="30" as="geometry" />
        </mxCell>
        <mxCell id="N7a6y6u_fCZmtixAhhg3-4" value="" style="rhombus;whiteSpace=wrap;html=1;" vertex="1" parent="1">
          <mxGeometry x="190" y="150" width="130" height="130" as="geometry" />
        </mxCell>
        <mxCell id="N7a6y6u_fCZmtixAhhg3-5" value="Pre Processing Promt" style="text;html=1;align=center;verticalAlign=middle;whiteSpace=wrap;rounded=0;" vertex="1" parent="1">
          <mxGeometry x="225" y="200" width="60" height="30" as="geometry" />
        </mxCell>
        <mxCell id="N7a6y6u_fCZmtixAhhg3-6" value="(tokenizer, stemming, etc, using NLTK)" style="text;html=1;align=center;verticalAlign=middle;whiteSpace=wrap;rounded=0;" vertex="1" parent="1">
          <mxGeometry x="202.5" y="290" width="105" height="30" as="geometry" />
        </mxCell>
      </root>
    </mxGraphModel>
  </diagram>
</mxfile>
